# xmcd
#
# Track frame offsets: 
#        150
#        12941
#        28990
#        43505
#        57201
#        73886
#        90698
#        103111
#        116622
#        130296
#        144101
#        159883
#        172777
#
# Disc length: 2521 seconds
#
# Revision: 0
# Processed by: cddbd v1.5.2PL0 Copyright (c) Steve Scherf et al.
# Submitted via: ExactAudioCopyFreeDBPlugin 1.0
#
DISCID=a709d70d
DTITLE=K*Rings Brothers - Save Our Souls
DYEAR=2008
DGENRE=Hip Hop
TTITLE0=Save Our Souls
TTITLE1=Mayday
TTITLE2=Let's Get Higher
TTITLE3=Pillow Fight
TTITLE4=Nie mehr frei feat. Xavier Naidoo
TTITLE5=Rollin' Stone
TTITLE6=Sound Of The Forest
TTITLE7=Für immer grün
TTITLE8=Iron Shirt
TTITLE9=Zu voll
TTITLE10=Warum
TTITLE11=My Old Friend
TTITLE12=Zu jung
EXTD=
EXTT0=
EXTT1=
EXTT2=
EXTT3=
EXTT4=
EXTT5=
EXTT6=
EXTT7=
EXTT8=
EXTT9=
EXTT10=
EXTT11=
EXTT12=
PLAYORDER=
